<?xml version="1.0" encoding="utf-8"?>
<!-- Generator: Adobe Illustrator 27.8.0, SVG Export Plug-In . SVG Version: 6.00 Build 0)  -->
<svg version="1.1" id="Capa_1" xmlns="http://www.w3.org/2000/svg" xmlns:xlink="http://www.w3.org/1999/xlink" x="0px" y="0px"
	 viewBox="0 0 53.9 12.8" style="enable-background:new 0 0 53.9 12.8;" xml:space="preserve">
<style type="text/css">
	.st0{fill:#FFFFFF;}
	.st1{fill:url(#SVGID_1_);}
	.st2{fill:url(#SVGID_00000178923051459809211520000006453122582566005691_);}
	.st3{fill:url(#SVGID_00000075874804681875370600000000694450158418074261_);}
</style>
<g>
	<path class="st0" d="M13.4,3.1C13.2,3,12.9,3,12.6,3c-1.1,0-1.9,0.5-2.3,1.4v7.2H8.5V1.5h1.7v1.2c0.6-0.9,1.4-1.4,2.4-1.4
		c0.3,0,0.6,0,0.8,0.1C13.4,1.4,13.4,3.1,13.4,3.1z"/>
	<path class="st0" d="M19,11.8c-1.4,0-2.5-0.4-3.3-1.3c-0.9-0.9-1.3-2.1-1.3-3.6V6.5c0-1,0.2-1.9,0.6-2.7C15.4,3,15.9,2.4,16.6,2
		s1.4-0.7,2.2-0.7c1.3,0,2.3,0.4,3.1,1.3C22.6,3.5,23,4.7,23,6.4v0.7h-6.8c0,1,0.3,1.8,0.9,2.4s1.3,0.9,2.1,0.9
		c0.6,0,1.1-0.1,1.5-0.4c0.4-0.2,0.8-0.6,1.1-1l1.1,0.8C22,11.2,20.7,11.8,19,11.8z M18.8,2.8c-0.7,0-1.3,0.3-1.8,0.8
		s-0.8,1.2-0.9,2.1h5.1V5.5c0-0.9-0.3-1.6-0.7-2C20.1,3,19.5,2.8,18.8,2.8z"/>
	<path class="st0" d="M26.6,1.5l0.1,1.3c0.8-1,1.8-1.5,3-1.5c2.1,0,3.2,1.2,3.2,3.6v6.7h-1.7V4.9c0-0.7-0.2-1.3-0.5-1.6
		s-0.8-0.5-1.5-0.5c-0.6,0-1.1,0.1-1.5,0.4s-0.8,0.7-1,1.2v7.2H25V1.5H26.6z"/>
</g>
<linearGradient id="SVGID_1_" gradientUnits="userSpaceOnUse" x1="34.7102" y1="7.35" x2="42.665" y2="7.35" gradientTransform="matrix(1 0 0 -1 0 14)">
	<stop  offset="0" style="stop-color:#4EC0FF"/>
	<stop  offset="0.3004" style="stop-color:#7194FF"/>
	<stop  offset="0.7756" style="stop-color:#A553FE"/>
	<stop  offset="1" style="stop-color:#B93AFE"/>
</linearGradient>
<path class="st1" d="M41,10.6c-0.7,0.8-1.7,1.2-3,1.2c-1.1,0-1.9-0.3-2.5-0.9c-0.6-0.6-0.8-1.6-0.9-2.8V1.5h1.7V8
	c0,1.5,0.6,2.3,1.9,2.3c1.3,0,2.2-0.5,2.6-1.5V1.5h1.7v10.1H41V10.6z"/>
<linearGradient id="SVGID_00000068638336977889256660000006341036943496296075_" gradientUnits="userSpaceOnUse" x1="44.3644" y1="7.45" x2="53.038" y2="7.45" gradientTransform="matrix(1 0 0 -1 0 14)">
	<stop  offset="0" style="stop-color:#4EC0FF"/>
	<stop  offset="0.3004" style="stop-color:#7194FF"/>
	<stop  offset="0.7756" style="stop-color:#A553FE"/>
	<stop  offset="1" style="stop-color:#B93AFE"/>
</linearGradient>
<polygon style="fill:url(#SVGID_00000068638336977889256660000006341036943496296075_);" points="48.7,5.2 50.9,1.5 52.9,1.5 
	49.6,6.5 53,11.6 51,11.6 48.7,7.9 46.4,11.6 44.4,11.6 47.8,6.5 44.5,1.5 46.5,1.5 "/>
<polygon class="st0" points="44.5,1.5 46.5,1.5 49.6,6.5 46.4,11.6 44.4,11.6 47.8,6.5 "/>
<linearGradient id="SVGID_00000113320583602409633830000007247086051017162881_" gradientUnits="userSpaceOnUse" x1="1" y1="7.45" x2="6.2683" y2="7.45" gradientTransform="matrix(1 0 0 -1 0 14)">
	<stop  offset="0" style="stop-color:#4EC0FF"/>
	<stop  offset="0.3004" style="stop-color:#7194FF"/>
	<stop  offset="0.7756" style="stop-color:#A553FE"/>
	<stop  offset="1" style="stop-color:#B93AFE"/>
</linearGradient>
<polygon style="fill:url(#SVGID_00000113320583602409633830000007247086051017162881_);" points="1.1,1.5 3.2,1.5 6.3,6.5 3,11.6 
	1,11.6 4.4,6.5 "/>
</svg>
